<svg width="12" height="12" viewBox="0 0 12 12" fill="none" xmlns="http://www.w3.org/2000/svg">
<path fill-rule="evenodd" clip-rule="evenodd" d="M8.51588 0.100098C10.3597 0.100098 11.5986 1.50691 11.5986 3.60055V8.47964C11.5986 10.5733 10.3597 11.9801 8.51588 11.9801H3.75145C1.9076 11.9801 0.668701 10.5733 0.668701 8.47964V3.60055C0.668701 1.50691 1.9076 0.100098 3.75145 0.100098H8.51588ZM8.51588 0.928935H3.75145C2.34225 0.928935 1.43125 1.97714 1.43125 3.60055V8.47964C1.43125 10.1031 2.34225 11.1513 3.75145 11.1513H8.51588C9.92559 11.1513 10.8361 10.1031 10.8361 8.47964V3.60055C10.8361 1.97714 9.92559 0.928935 8.51588 0.928935ZM6.13367 3.5963C6.34413 3.5963 6.51494 3.78196 6.51494 4.01072V5.62015L7.9976 5.62026C8.20807 5.62026 8.37888 5.80592 8.37888 6.03468C8.37888 6.26344 8.20807 6.4491 7.9976 6.4491L6.51494 6.44899V8.05931C6.51494 8.28807 6.34413 8.47373 6.13367 8.47373C5.9232 8.47373 5.75239 8.28807 5.75239 8.05931V6.44899L4.26973 6.4491C4.05876 6.4491 3.88846 6.26344 3.88846 6.03468C3.88846 5.80592 4.05876 5.62026 4.26973 5.62026L5.75239 5.62015V4.01072C5.75239 3.78196 5.9232 3.5963 6.13367 3.5963Z" fill="black"/>
</svg>
