<svg width="45" height="70" viewBox="0 0 45 70" fill="none" xmlns="http://www.w3.org/2000/svg">
<path d="M33.75 23.333C33.75 18.6917 32.5647 14.2405 30.455 10.9586C28.3452 7.67675 25.4837 5.83301 22.5 5.83301C19.5163 5.83301 16.6548 7.67675 14.545 10.9586C12.4353 14.2405 11.25 18.6917 11.25 23.333C11.25 43.7497 5.625 49.583 5.625 49.583H39.375C39.375 49.583 33.75 43.7497 33.75 23.333Z" stroke="#FF3F56" stroke-width="3" stroke-linecap="round" stroke-linejoin="round"/>
<path d="M25.7437 61.25C25.4141 62.134 24.9409 62.8677 24.3716 63.3778C23.8024 63.8879 23.1569 64.1563 22.5 64.1563C21.843 64.1563 21.1976 63.8879 20.6283 63.3778C20.059 62.8677 19.5859 62.134 19.2562 61.25" stroke="#FF3F56" stroke-width="3" stroke-linecap="round" stroke-linejoin="round"/>
</svg>
