<svg width="29" height="24" viewBox="0 0 29 24" fill="none" xmlns="http://www.w3.org/2000/svg">
<path fill-rule="evenodd" clip-rule="evenodd" d="M19.8882 0C20.4851 0 20.9696 0.373036 20.9696 0.832671L20.9703 1.77393C23.0755 1.88507 24.824 2.44033 26.0615 3.39519C27.4125 4.43991 28.1234 5.94205 28.1162 7.74395V17.8726C28.1162 21.5718 25.0652 23.87 20.1557 23.87H7.96047C3.05096 23.87 0 21.5396 0 17.7882V7.74173C0 4.2525 2.72086 2.01278 7.15835 1.77431L7.15924 0.832671C7.15924 0.373036 7.6437 0 8.24063 0C8.83755 0 9.32202 0.373036 9.32202 0.832671L9.32158 1.75305H18.8061L18.8068 0.832671C18.8068 0.373036 19.2913 0 19.8882 0ZM25.9534 9.88547H2.16278V17.7882C2.16278 20.637 4.22175 22.2047 7.96047 22.2047H20.1557C23.8944 22.2047 25.9534 20.6659 25.9534 17.8726L25.9534 9.88547ZM20.4761 16.8713C21.073 16.8713 21.5574 17.2444 21.5574 17.704C21.5574 18.1637 21.073 18.5367 20.4761 18.5367C19.8791 18.5367 19.3889 18.1637 19.3889 17.704C19.3889 17.2444 19.8661 16.8713 20.4631 16.8713H20.4761ZM14.0778 16.8713C14.6748 16.8713 15.1592 17.2444 15.1592 17.704C15.1592 18.1637 14.6748 18.5367 14.0778 18.5367C13.4809 18.5367 12.9907 18.1637 12.9907 17.704C12.9907 17.2444 13.4679 16.8713 14.0649 16.8713H14.0778ZM7.66619 16.8713C8.26312 16.8713 8.74758 17.2444 8.74758 17.704C8.74758 18.1637 8.26312 18.5367 7.66619 18.5367C7.06926 18.5367 6.57759 18.1637 6.57759 17.704C6.57759 17.2444 7.05629 16.8713 7.65322 16.8713H7.66619ZM20.4761 12.5562C21.073 12.5562 21.5574 12.9293 21.5574 13.3889C21.5574 13.8485 21.073 14.2216 20.4761 14.2216C19.8791 14.2216 19.3889 13.8485 19.3889 13.3889C19.3889 12.9293 19.8661 12.5562 20.4631 12.5562H20.4761ZM14.0778 12.5562C14.6748 12.5562 15.1592 12.9293 15.1592 13.3889C15.1592 13.8485 14.6748 14.2216 14.0778 14.2216C13.4809 14.2216 12.9907 13.8485 12.9907 13.3889C12.9907 12.9293 13.4679 12.5562 14.0649 12.5562H14.0778ZM7.66619 12.5562C8.26312 12.5562 8.74758 12.9293 8.74758 13.3889C8.74758 13.8485 8.26312 14.2216 7.66619 14.2216C7.06926 14.2216 6.57759 13.8485 6.57759 13.3889C6.57759 12.9293 7.05629 12.5562 7.65322 12.5562H7.66619ZM18.8061 3.41839H9.32158L9.32202 4.48643C9.32202 4.94606 8.83755 5.3191 8.24063 5.3191C7.6437 5.3191 7.15924 4.94606 7.15924 4.48643L7.15847 3.4436C3.92838 3.65253 2.16278 5.16018 2.16278 7.74173V8.22012H25.9534L25.9534 7.74173C25.9591 6.3706 25.4804 5.30478 24.5303 4.57203C23.6962 3.92788 22.4769 3.54318 20.9708 3.44413L20.9696 4.48643C20.9696 4.94606 20.4851 5.3191 19.8882 5.3191C19.2913 5.3191 18.8068 4.94606 18.8068 4.48643L18.8061 3.41839Z" fill="black"/>
</svg>
