<svg width="20" height="20" viewBox="0 0 20 20" fill="none" xmlns="http://www.w3.org/2000/svg">
<path fill-rule="evenodd" clip-rule="evenodd" d="M19.2308 17.8863C19.6554 17.8863 20 18.2309 20 18.6555C20 19.0801 19.6554 19.4247 19.2308 19.4247H11.792C11.3674 19.4247 11.0228 19.0801 11.0228 18.6555C11.0228 18.2309 11.3674 17.8863 11.792 17.8863H19.2308ZM14.4779 0.670386C14.5292 0.710385 16.245 2.04369 16.245 2.04369C16.8686 2.41496 17.3558 3.07853 17.5404 3.86415C17.724 4.64157 17.5906 5.4436 17.1629 6.12154C17.1601 6.12606 17.1573 6.13052 17.1473 6.14382L17.1396 6.15408C17.0702 6.24557 16.7684 6.62716 15.2453 8.53541C15.2312 8.56042 15.2152 8.58384 15.1977 8.6066C15.172 8.64015 15.144 8.67099 15.1142 8.69907C15.0103 8.82987 14.9006 8.96732 14.7852 9.11182L14.5514 9.40459C14.0691 10.0087 13.497 10.725 12.8182 11.5746L12.4699 12.0106C11.1595 13.6507 9.48124 15.7506 7.33139 18.4402C6.86063 19.0269 6.155 19.3684 5.39707 19.3776L1.66486 19.4248H1.6546C1.29871 19.4248 0.988975 19.1807 0.9059 18.833L0.0659208 15.2731C-0.107408 14.5357 0.0648951 13.7747 0.537704 13.1839L10.199 1.10012C10.2031 1.09602 10.2062 1.09089 10.2103 1.08679C11.2698 -0.179849 13.1856 -0.366511 14.4779 0.670386ZM9.12183 4.90962L1.7387 14.1449C1.56332 14.3644 1.49871 14.6475 1.56332 14.9193L2.26176 17.8782L5.37861 17.8392C5.67501 17.8361 5.94885 17.7038 6.13039 17.4782C7.06522 16.3086 8.24014 14.8385 9.44811 13.3269L9.87548 12.7921L10.3036 12.2563C11.4365 10.8386 12.5557 9.43779 13.4921 8.2653L9.12183 4.90962ZM11.3949 2.0683L10.0828 3.7076L14.4527 7.06232C15.2939 6.00877 15.8472 5.31488 15.8984 5.24874C16.0666 4.97592 16.1322 4.59029 16.044 4.21902C15.9537 3.83851 15.7168 3.51545 15.3753 3.3093C15.3025 3.25904 13.5743 1.91754 13.521 1.87549C12.8707 1.35447 11.922 1.44473 11.3949 2.0683Z" fill="black"/>
</svg>
