<svg width="33" height="56" viewBox="0 0 33 56" fill="none" xmlns="http://www.w3.org/2000/svg">
<path d="M23.7547 2C21.8064 2 20.8038 5.30238 19.9721 6.7565C17.5788 10.9407 14.1515 14.171 11.2362 17.9702C9.55037 20.1671 7.52134 22.0423 5.58716 24.0071C5.14947 24.4517 2.7165 25.6817 3.85913 26.0339C7.68041 27.2117 11.8226 27.0357 15.5292 25.7636C15.6958 25.7064 17.959 24.9983 17.1829 25.2087C16.9886 25.2614 16.7713 25.749 16.6933 25.8884C15.3156 28.3516 14.6707 31.1906 13.7509 33.8388C11.4466 40.4731 6.91642 46.148 3.47453 52.1727C3.34581 52.398 1.55238 54.4961 2.10566 53.8908C3.92115 51.9044 5.97137 49.9892 7.86936 48.0701C14.4124 41.4544 20.3364 33.8823 27.7455 28.2498C28.1197 27.9652 31.3054 24.8911 30.9762 24.8911C30.4668 24.8911 29.1086 23.181 28.7374 22.896C25.5518 20.4501 21.8303 20.7373 18.0402 20.7373C17.634 20.7373 17.1097 20.8744 17.1097 20.4021C17.1097 20.0756 17.0959 19.7582 17.1966 19.4419C18.2631 16.0906 19.978 12.8874 21.4141 9.69029C21.6496 9.16605 23.584 2.23055 24.4598 2.23055" stroke="#FF3F56" stroke-width="3" stroke-linecap="round" stroke-linejoin="round"/>
</svg>
