<svg width="288" height="216" viewBox="0 0 288 216" fill="none" xmlns="http://www.w3.org/2000/svg">
<path d="M62.588 146.713C60.5233 145.798 62.1165 144.231 62.9237 142.817C65.7487 137.868 67.6998 132.784 69.6658 127.428C72.5302 119.623 75.6859 111.863 78.1702 103.924C80.1402 97.6282 81.0768 91.1836 83.6847 85.0892C84.2772 83.7045 89.175 71.3638 86.2653 70.2736C84.1427 69.4783 89.5628 80.2597 89.8016 80.6781C98.986 96.7729 109.74 114.403 123.031 127.436C125.898 130.248 130.545 132.311 124.174 131.277C115.823 129.922 108.25 126.206 100.309 123.432C91.2713 120.275 83.5381 114.169 74.1357 112.101C66.9372 110.518 59.7832 110.519 52.4884 110.054C51.4487 109.987 35.2068 108.961 36.2623 107.478C38.9168 103.747 44.9181 103.613 48.9254 102.869C64.9839 99.8849 81.6375 99.1661 97.4958 95.3218C116.232 90.7799 131.427 78.0914 149.507 71.9411C153.542 70.5684 159.796 68.5455 155.576 74.3675C149.907 82.1897 139.346 87.9621 131.607 93.3867C114.383 105.459 98.7511 119.451 81.5734 131.585C74.5403 136.553 67.5083 141.663 59.7952 145.545C57.4434 146.728 53.7011 149.483 51.2001 147.93" stroke="#FFBD59" stroke-width="6" stroke-linecap="round"/>
<path d="M189.719 128.946C188.64 128.468 189.472 127.649 189.894 126.91C191.37 124.323 192.39 121.666 193.417 118.866C194.913 114.787 196.562 110.731 197.86 106.581C198.889 103.291 199.378 99.922 200.741 96.7366C201.05 96.0128 203.609 89.5626 202.089 88.9926C200.979 88.5767 203.812 94.2125 203.937 94.4313C208.738 102.845 214.359 112.061 221.306 118.874C222.804 120.343 225.233 121.422 221.903 120.881C217.539 120.173 213.581 118.23 209.431 116.779C204.708 115.128 200.666 111.937 195.752 110.855C191.99 110.027 188.251 110.027 184.439 109.784C183.895 109.749 175.407 109.212 175.959 108.436C177.346 106.487 180.482 106.417 182.576 106.028C190.968 104.469 199.672 104.095 207.959 102.086C217.75 99.7129 225.691 93.0815 235.139 89.8677C237.248 89.1504 240.516 88.0934 238.311 91.1363C235.349 95.2247 229.83 98.2413 225.786 101.076C216.785 107.386 208.616 114.699 199.64 121.04C195.965 123.636 192.29 126.307 188.259 128.335C187.03 128.954 185.075 130.394 183.768 129.582" stroke="#FFBD59" stroke-width="3" stroke-linecap="round"/>
<path d="M248.286 33.6472C248.689 34.3093 247.934 34.4381 247.43 34.678C245.665 35.5175 244.121 36.5661 242.519 37.6887C240.185 39.3243 237.778 40.89 235.525 42.638C233.738 44.0241 232.213 45.6546 230.286 46.859C229.848 47.1327 226.054 49.6466 226.661 50.5236C227.104 51.1634 227.685 47.0667 227.699 46.9021C228.259 40.5723 228.676 33.5025 227.479 27.23C227.221 25.8767 226.314 24.3856 227.908 25.9249C229.997 27.9426 231.405 30.4725 233.1 32.8093C235.03 35.4687 236.016 38.7025 238.261 41.1268C239.981 42.9829 241.997 44.3845 243.963 45.9448C244.243 46.1672 248.62 49.6384 248.032 49.8492C246.555 50.3791 244.837 49.2409 243.562 48.6653C238.452 46.3586 233.617 43.2979 228.395 41.2727C222.225 38.88 215.46 39.4741 209.161 37.6628C207.755 37.2585 205.597 36.6026 207.925 35.7906C211.053 34.6997 215.159 35.1441 218.402 35.1337C225.618 35.1105 232.761 34.2349 239.976 34.1854C242.93 34.1651 245.912 34.1044 248.845 34.5232C249.739 34.6509 251.333 34.6087 251.734 35.5359" stroke="#FFBD59" stroke-width="3" stroke-linecap="round"/>
<path d="M81.118 179.25C81.5209 179.912 80.7654 180.041 80.2613 180.281C78.497 181.12 76.9527 182.169 75.3508 183.291C73.0168 184.927 70.6095 186.493 68.3563 188.241C66.5696 189.627 65.045 191.257 63.1179 192.462C62.68 192.735 58.8856 195.249 59.4925 196.126C59.9353 196.766 60.5163 192.669 60.5309 192.505C61.0902 186.175 61.5074 179.105 60.3104 172.833C60.0521 171.479 59.1458 169.988 60.7394 171.527C62.8283 173.545 64.2361 176.075 65.9318 178.412C67.8617 181.071 68.8472 184.305 71.093 186.729C72.8124 188.585 74.829 189.987 76.7942 191.547C77.0743 191.77 81.4516 195.241 80.8639 195.452C79.3861 195.982 77.6682 194.843 76.3931 194.268C71.2831 191.961 66.4483 188.9 61.2264 186.875C55.0569 184.483 48.2918 185.077 41.9928 183.265C40.587 182.861 38.4286 182.205 40.7567 181.393C43.8847 180.302 47.9904 180.747 51.2331 180.736C58.4493 180.713 65.5923 179.837 72.8075 179.788C75.7616 179.768 78.7434 179.707 81.6767 180.126C82.571 180.253 84.1648 180.211 84.566 181.138" stroke="#FFBD59" stroke-width="3" stroke-linecap="round"/>
</svg>
