<svg width="11" height="9" viewBox="0 0 11 9" fill="none" xmlns="http://www.w3.org/2000/svg">
<path d="M0 4.49993C0 4.24772 0.187422 4.03928 0.43059 4.00629L0.498192 4.00174L9.25574 4.00214L6.0919 0.851224C5.89692 0.657087 5.89624 0.341651 6.09038 0.146676C6.26687 -0.0305738 6.5436 -0.0472488 6.73895 0.0970421L6.79493 0.145159L10.8137 4.14664C10.8394 4.17223 10.8617 4.19992 10.8806 4.22917C10.886 4.23797 10.8914 4.24698 10.8966 4.25617C10.9014 4.26404 10.9056 4.27222 10.9097 4.28049C10.9153 4.29252 10.9208 4.30494 10.9258 4.31762C10.9299 4.3274 10.9332 4.33691 10.9363 4.3465C10.94 4.35838 10.9436 4.37105 10.9466 4.38391C10.9489 4.39289 10.9507 4.40153 10.9523 4.4102C10.9545 4.42311 10.9564 4.43647 10.9577 4.44998C10.9589 4.46029 10.9596 4.4705 10.96 4.48073C10.9601 4.48692 10.9602 4.49341 10.9602 4.49993L10.96 4.51923C10.9596 4.52901 10.9589 4.53878 10.958 4.54853L10.9602 4.49993C10.9602 4.53137 10.9573 4.56213 10.9517 4.59195C10.9504 4.59908 10.9489 4.60639 10.9472 4.61367C10.9437 4.62867 10.9396 4.64311 10.9349 4.65727C10.9326 4.6643 10.9299 4.67182 10.927 4.67928C10.9212 4.69427 10.9148 4.70856 10.9079 4.72248C10.9046 4.72902 10.901 4.73588 10.8972 4.74266C10.891 4.75372 10.8846 4.76424 10.8778 4.77449C10.873 4.78174 10.8677 4.78929 10.8622 4.79672L10.8579 4.80247C10.8445 4.82 10.8299 4.83662 10.8143 4.85221L10.8137 4.85267L6.79496 8.85481C6.6 9.04896 6.28456 9.04831 6.09041 8.85335C5.91391 8.67612 5.8984 8.39931 6.04352 8.20458L6.09187 8.1488L9.25441 4.99852L0.498192 4.99813C0.223048 4.99813 0 4.77508 0 4.49993Z" fill="#EB335A"/>
</svg>
