<svg width="34" height="59" viewBox="0 0 34 59" fill="none" xmlns="http://www.w3.org/2000/svg">
<path d="M14.8646 2.67735C15.1913 2.67735 15.7826 1.38457 15.1049 2.37101C10.3006 9.36359 8.75161 18.1758 3.84722 25.2546C1.93032 28.0215 0.810044 27.2425 4.05134 28.5935C7.49154 30.0274 11.5812 31.5836 15.3752 31.5836C15.9925 31.5836 15.4469 31.4067 14.9749 31.6428C12.8815 32.6896 11.6159 35.7757 10.7191 37.6985C7.88325 43.7793 5.76747 50.2176 2.87384 56.2547C2.43907 57.1618 2.29209 57.2272 3.16071 56.5256C8.46118 52.2444 12.305 46.0782 16.766 41.0014C21.3075 35.833 26.027 28.0792 31.998 24.4963C32.0745 24.4505 29.8858 24.0508 29.5842 24.0129C25.0199 23.4397 19.656 23.772 15.2618 22.6847C14.9225 22.6007 15.9789 22.2726 15.9789 21.9263C15.9789 16.4309 15.4383 10.9602 15.4383 5.47857C15.4383 5.20141 14.4176 3.40917 14.9528 3.16076" stroke="#FF3F56" stroke-width="3" stroke-linecap="round" stroke-linejoin="round"/>
</svg>
