<svg width="33" height="56" viewBox="0 0 33 56" fill="none" xmlns="http://www.w3.org/2000/svg">
<path d="M9.24532 2C11.1936 2 12.1962 5.30238 13.0279 6.7565C15.4212 10.9407 18.8485 14.171 21.7638 17.9702C23.4496 20.1671 25.4787 22.0423 27.4128 24.0071C27.8505 24.4517 30.2835 25.6817 29.1409 26.0339C25.3196 27.2117 21.1774 27.0357 17.4708 25.7636C17.3042 25.7064 15.041 24.9983 15.8171 25.2087C16.0114 25.2614 16.2287 25.749 16.3067 25.8884C17.6844 28.3516 18.3293 31.1906 19.2491 33.8388C21.5534 40.4731 26.0836 46.148 29.5255 52.1727C29.6542 52.398 31.4476 54.4961 30.8943 53.8908C29.0789 51.9044 27.0286 49.9892 25.1306 48.0701C18.5876 41.4544 12.6636 33.8823 5.25454 28.2498C4.8803 27.9652 1.69455 24.8911 2.02383 24.8911C2.53317 24.8911 3.89143 23.181 4.26256 22.896C7.44825 20.4501 11.1697 20.7373 14.9598 20.7373C15.366 20.7373 15.8903 20.8744 15.8903 20.4021C15.8903 20.0756 15.9041 19.7582 15.8034 19.4419C14.7369 16.0906 13.022 12.8874 11.5859 9.69029C11.3504 9.16605 9.41599 2.23055 8.54015 2.23055" stroke="#FF3F56" stroke-width="3" stroke-linecap="round" stroke-linejoin="round"/>
</svg>
