<svg width="34" height="59" viewBox="0 0 34 59" fill="none" xmlns="http://www.w3.org/2000/svg">
<path d="M19.1354 2.67735C18.8087 2.67735 18.2174 1.38457 18.8951 2.37101C23.6994 9.36359 25.2484 18.1758 30.1528 25.2546C32.0697 28.0215 33.19 27.2425 29.9487 28.5935C26.5085 30.0274 22.4188 31.5836 18.6248 31.5836C18.0075 31.5836 18.5531 31.4067 19.0251 31.6428C21.1185 32.6896 22.3841 35.7757 23.2809 37.6985C26.1167 43.7793 28.2325 50.2176 31.1262 56.2547C31.5609 57.1618 31.7079 57.2272 30.8393 56.5256C25.5388 52.2444 21.695 46.0782 17.234 41.0014C12.6925 35.833 7.97296 28.0792 2.00196 24.4963C1.92554 24.4505 4.11422 24.0508 4.41579 24.0129C8.98014 23.4397 14.344 23.772 18.7382 22.6847C19.0775 22.6007 18.0211 22.2726 18.0211 21.9263C18.0211 16.4309 18.5617 10.9602 18.5617 5.47857C18.5617 5.20141 19.5824 3.40917 19.0472 3.16076" stroke="#FF3F56" stroke-width="3" stroke-linecap="round" stroke-linejoin="round"/>
</svg>
