<svg width="282" height="249" viewBox="0 0 282 249" fill="none" xmlns="http://www.w3.org/2000/svg">
<path d="M66.5448 72.6979C66.3251 70.4502 68.4731 71.0658 70.1014 71.0723C75.7998 71.0952 81.1852 70.2912 86.8157 69.3657C95.0195 68.0171 103.327 66.9444 111.461 65.1988C117.911 63.8144 123.982 61.4573 130.57 60.7275C132.067 60.5616 145.22 58.7502 144.737 55.6808C144.384 53.4416 137.668 63.4668 137.421 63.8806C127.932 79.7978 117.88 97.8376 113.077 115.822C112.041 119.702 112.533 124.762 110.297 118.708C107.366 110.771 106.872 102.35 105.378 94.0718C103.678 84.6512 105.185 74.9144 102.357 65.7122C100.191 58.667 96.6695 52.44 93.4837 45.8612C93.0296 44.9235 85.9277 30.2805 87.7386 30.4691C92.2924 30.9434 95.3633 36.1013 97.9839 39.2229C108.486 51.7324 117.309 65.8748 128.462 77.7864C141.638 91.8595 160.163 98.8407 174.416 111.551C177.597 114.387 182.436 118.835 175.292 118.028C165.692 116.944 155.469 110.593 146.937 106.526C127.951 97.4757 108.076 90.7568 89.0587 81.777C81.2725 78.1004 73.3624 74.4951 66.187 69.6918C63.9993 68.2272 59.759 66.3258 59.8795 63.3845" stroke="#FFBD59" stroke-width="6" stroke-linecap="round"/>
<path d="M144.59 174.614C144.475 173.439 145.598 173.761 146.449 173.764C149.427 173.776 152.242 173.355 155.184 172.871C159.472 172.166 163.814 171.604 168.065 170.691C171.436 169.967 174.609 168.735 178.053 168.353C178.835 168.266 185.709 167.319 185.457 165.714C185.273 164.544 181.762 169.784 181.633 170.001C176.672 178.321 171.417 187.751 168.906 197.151C168.365 199.179 168.621 201.824 167.453 198.659C165.922 194.511 165.664 190.11 164.884 185.783C163.996 180.859 164.785 175.77 163.307 170.96C162.176 167.278 160.336 164.024 158.671 160.585C158.434 160.095 154.723 152.442 155.67 152.541C158.049 152.788 159.654 155.484 161.023 157.115C166.511 163.653 171.122 171.044 176.949 177.27C183.835 184.624 193.516 188.272 200.964 194.914C202.627 196.396 205.155 198.721 201.421 198.3C196.404 197.734 191.062 194.415 186.603 192.29C176.681 187.561 166.294 184.05 156.356 179.358C152.287 177.437 148.153 175.553 144.403 173.043C143.26 172.278 141.044 171.284 141.107 169.747" stroke="#FFBD59" stroke-width="3" stroke-linecap="round"/>
<path d="M256.373 178.684C255.995 179.361 255.511 178.766 255.054 178.446C253.455 177.323 251.782 176.495 250.016 175.653C247.444 174.427 244.896 173.102 242.265 172.001C240.179 171.128 238.009 170.604 236.012 169.519C235.558 169.273 231.502 167.207 231.038 168.167C230.699 168.868 234.551 167.357 234.701 167.288C240.486 164.659 246.846 161.543 251.716 157.413C252.767 156.522 253.619 154.999 253.064 157.144C252.336 159.955 250.826 162.426 249.627 165.053C248.262 168.041 245.932 170.491 244.928 173.639C244.158 176.05 243.931 178.495 243.54 180.974C243.484 181.327 242.618 186.846 242.145 186.438C240.956 185.413 241.101 183.357 240.975 181.964C240.467 176.38 240.751 170.665 239.944 165.123C238.99 158.575 235.142 152.978 233.618 146.604C233.278 145.181 232.787 142.979 234.639 144.606C237.129 146.792 238.763 150.585 240.368 153.402C243.941 159.672 248.219 165.459 251.814 171.715C253.285 174.276 254.806 176.842 255.885 179.601C256.215 180.443 257.036 181.809 256.426 182.615" stroke="#FFBD59" stroke-width="3" stroke-linecap="round"/>
<path d="M47.3442 104.844C46.9662 105.521 46.4822 104.926 46.0252 104.606C44.426 103.483 42.7531 102.655 40.9874 101.813C38.4148 100.587 35.8669 99.262 33.2362 98.1612C31.1501 97.2882 28.9804 96.7637 26.9834 95.6791C26.5296 95.4327 22.4736 93.3673 22.0089 94.3273C21.67 95.0276 25.522 93.5168 25.6724 93.4485C31.4576 90.8195 37.8168 87.7025 42.6876 83.5729C43.7385 82.682 44.5902 81.1591 44.0348 83.3039C43.3067 86.1155 41.7975 88.5862 40.5982 91.2126C39.2332 94.2015 36.9035 96.6512 35.8988 99.7994C35.1295 102.21 34.9021 104.655 34.5113 107.134C34.4556 107.487 33.5888 113.006 33.1161 112.598C31.9273 111.573 32.0725 109.517 31.9458 108.124C31.4383 102.54 31.7226 96.8252 30.915 91.2828C29.9608 84.7347 26.1136 79.1385 24.5895 72.7639C24.2494 71.3411 23.7579 69.1395 25.6107 70.7663C28.1001 72.9521 29.7343 76.7447 31.3395 79.5622C34.9118 85.8321 39.1902 91.6188 42.7849 97.8749C44.2567 100.436 45.7773 103.002 46.8566 105.761C47.1858 106.603 48.007 107.969 47.3975 108.775" stroke="#FFBD59" stroke-width="3" stroke-linecap="round"/>
</svg>
