<svg width="297" height="144" viewBox="0 0 297 144" fill="none" xmlns="http://www.w3.org/2000/svg">
<path d="M28.1338 75.1715C26.3257 73.1263 28.8678 72.209 30.4687 71.0632C36.0715 67.053 40.7815 62.455 45.6456 57.5644C52.7328 50.4387 60.1173 43.5096 66.8543 36.0447C72.1969 30.1249 76.4782 23.5212 82.4203 18.1442C83.7704 16.9225 95.3816 5.8414 92.7328 3.17823C90.8005 1.23544 91.3194 15.8038 91.3708 16.3835C93.347 38.6822 96.2745 63.458 104.31 84.4641C106.044 88.9961 110.112 93.6023 103.629 89.2571C95.1315 83.5613 88.6807 75.6649 81.3502 68.6177C73.0076 60.5977 67.5864 49.9977 58.293 42.9897C51.1779 37.6243 43.3126 34.02 35.5277 29.8333C34.4181 29.2366 17.0798 19.9257 18.9888 18.8289C23.7893 16.0708 30.4547 18.9477 35.2358 20.1495C54.3957 24.9655 73.067 32.568 92.4409 36.3382C115.331 40.7925 138.439 34.5186 161.418 36.8761C166.547 37.4023 174.442 38.3326 166.866 42.5984C156.687 48.3299 142.164 49.3461 130.918 51.402C105.891 55.977 81.646 63.4629 56.6391 68.1286C46.4006 70.0389 36.0911 72.1067 25.653 72.4815C22.4704 72.5958 16.966 73.7348 15 70.7697" stroke="#FFBD59" stroke-width="6" stroke-linecap="round"/>
<path d="M176.863 119.726C175.919 118.657 177.247 118.177 178.084 117.578C181.012 115.482 183.473 113.079 186.015 110.522C189.718 106.797 193.577 103.175 197.098 99.2734C199.89 96.1789 202.127 92.727 205.233 89.9163C205.938 89.2777 212.006 83.4853 210.622 82.0932C209.612 81.0776 209.883 88.6929 209.91 88.9959C210.943 100.652 212.472 113.603 216.672 124.583C217.578 126.952 219.703 129.36 216.316 127.089C211.875 124.112 208.504 119.984 204.673 116.3C200.314 112.108 197.481 106.567 192.624 102.904C188.906 100.099 184.796 98.215 180.727 96.0265C180.148 95.7146 171.087 90.8475 172.084 90.2742C174.593 88.8325 178.076 90.3363 180.575 90.9645C190.587 93.482 200.345 97.456 210.469 99.4268C222.431 101.755 234.507 98.4756 246.515 99.708C249.195 99.983 253.321 100.469 249.362 102.699C244.043 105.695 236.453 106.226 230.577 107.301C217.498 109.693 204.828 113.606 191.76 116.045C186.409 117.043 181.022 118.124 175.567 118.32C173.904 118.38 171.027 118.975 170 117.425" stroke="#FFBD59" stroke-width="3" stroke-linecap="round"/>
<path d="M289.336 44.6074C289.445 45.5375 288.549 45.2982 287.874 45.3075C285.511 45.3402 283.284 45.7133 280.957 46.1386C277.565 46.7582 274.129 47.2643 270.77 48.0481C268.106 48.6696 265.607 49.6915 262.881 50.0428C262.261 50.1226 256.821 50.9707 257.046 52.2394C257.21 53.1649 259.916 48.9599 260.015 48.7865C263.824 42.1187 267.85 34.5669 269.699 27.077C270.097 25.461 269.853 23.3672 270.829 25.8602C272.107 29.1281 272.378 32.6152 273.063 36.0353C273.843 39.9275 273.295 43.9746 274.541 47.7679C275.495 50.6721 277.004 53.2271 278.378 55.9304C278.573 56.3157 281.634 62.3327 280.882 62.2679C278.99 62.1049 277.675 59.9898 276.564 58.7152C272.11 53.6078 268.339 47.8111 263.62 42.9563C258.045 37.2206 250.308 34.4639 244.297 29.3012C242.955 28.149 240.913 26.3412 243.882 26.6228C247.872 27.0012 252.161 29.5581 255.731 31.1806C263.676 34.7914 271.971 37.4293 279.928 41.0107C283.186 42.477 286.495 43.9129 289.508 45.8508C290.427 46.4416 292.2 47.1984 292.174 48.4185" stroke="#FFBD59" stroke-width="3" stroke-linecap="round"/>
<path d="M32.0887 120.232C32.1976 121.162 31.302 120.922 30.6268 120.932C28.2636 120.964 26.0367 121.337 23.7092 121.763C20.318 122.382 16.8814 122.888 13.5224 123.672C10.8586 124.294 8.3599 125.316 5.63352 125.667C5.01407 125.747 -0.425817 126.595 -0.201102 127.864C-0.0371722 128.789 2.66871 124.584 2.76773 124.411C6.57649 117.743 10.6022 110.191 12.4512 102.701C12.8501 101.085 12.6061 98.9914 13.5814 101.484C14.8598 104.752 15.1309 108.239 15.8161 111.659C16.5959 115.552 16.0478 119.599 17.2935 123.392C18.2473 126.296 19.7571 128.851 21.1302 131.555C21.326 131.94 24.3869 137.957 23.6345 137.892C21.7423 137.729 20.4281 135.614 19.3167 134.339C14.8627 129.232 11.0918 123.435 6.37281 118.58C0.797453 112.845 -6.93966 110.088 -12.9508 104.925C-14.2924 103.773 -16.3343 101.965 -13.3651 102.247C-9.37576 102.625 -5.08626 105.182 -1.51613 106.805C6.42888 110.416 14.7237 113.053 22.6808 116.635C25.9387 118.101 29.2474 119.537 32.2609 121.475C33.1797 122.066 34.9531 122.823 34.9264 124.043" stroke="#FFBD59" stroke-width="3" stroke-linecap="round"/>
</svg>
