<svg width="87" height="49" viewBox="0 0 87 49" fill="none" xmlns="http://www.w3.org/2000/svg">
<path d="M3.64664 40.5419C4.62131 40.2296 8.32875 42.5731 9.25779 42.8953C13.7342 44.4476 18.7106 46.0782 23.4873 45.1748C25.8804 44.7222 27.0583 44.7019 29.3451 45.43C29.6053 45.5128 31.6511 46.155 31.5084 45.7093C30.7643 43.3865 30.9359 40.9441 30.7512 38.5289C30.2139 31.5051 29.3281 24.5528 28.5743 17.5506C28.0984 13.1299 25.3276 0.111371 26.6842 4.34609C26.9884 5.29566 28.3956 5.85007 29.1351 6.4285C34.4901 10.617 39.933 14.8128 44.4777 19.8998C50.5977 26.7501 56.0268 35.184 64.1636 39.8377C64.3944 39.9697 69.6371 31.3728 70.4143 30.3431C74.0539 25.521 78.6184 18.8942 83.4707 15.1954" stroke="#9FED88" stroke-width="6" stroke-linecap="round" stroke-linejoin="round"/>
</svg>
